# xmcd CD database file
#
# Track frame offsets:
#	187
#	18335
#	38487
#	57930
#	77747
#	93635
#	113152
#	133465
#	155435
#	176095
#	195920
#	212970
#	234505
#	256317
#	273985
#
# Disc length: 3913 seconds
#
# Revision: 0
# Processed by: cddbd v1.5PL3 Copyright (c) Steve Scherf et al.
# Submitted via: CDex 1.50
#
DISCID=cc0f470f
DTITLE=Tim Hardin - New Music Jazz Christmas
DYEAR=1993
DGENRE=Jazz
TTITLE0=クリスマスキャロルの頃には
TTITLE1=世界にMerry X'mas
TTITLE2=Christmas Time Forever
TTITLE3=サンタと天使が笑う夜
TTITLE4=クリスマス・イブ
TTITLE5=メリークリスマスが言えない
TTITLE6=サイレント・イヴ
TTITLE7=メリー・クリスマス
TTITLE8=Christmas Chorus
TTITLE9=Merry Christmas To You
TTITLE10=Midnight Flight - ひとりぼっちのクリスマス・イブ -
TTITLE11=雪のクリスマス
TTITLE12=ひとりでX'mas
TTITLE13=Christmas Calendar
TTITLE14=恋人がサンタクロース
EXTD=YEAR: 1993
EXTT0=
EXTT1=
EXTT2=
EXTT3=
EXTT4=
EXTT5=
EXTT6=
EXTT7=
EXTT8=
EXTT9=
EXTT10=
EXTT11=
EXTT12=
EXTT13=
EXTT14=
PLAYORDER=
